<?xml version="1.0" encoding="UTF-8" standalone="no"?>
<!-- Created with Inkscape (http://www.inkscape.org/) -->

<svg
   xmlns:dc="http://purl.org/dc/elements/1.1/"
   xmlns:cc="http://creativecommons.org/ns#"
   xmlns:rdf="http://www.w3.org/1999/02/22-rdf-syntax-ns#"
   xmlns:svg="http://www.w3.org/2000/svg"
   xmlns="http://www.w3.org/2000/svg"
   xmlns:sodipodi="http://sodipodi.sourceforge.net/DTD/sodipodi-0.dtd"
   xmlns:inkscape="http://www.inkscape.org/namespaces/inkscape"
   width="300"
   height="130"
   viewBox="0 0 300 130"
   id="svg5637"
   version="1.1"
   inkscape:version="0.91 r13725"
   sodipodi:docname="logo-biale.svg">
  <defs
     id="defs5639" />
  <sodipodi:namedview
     id="base"
     pagecolor="#ffffff"
     bordercolor="#666666"
     borderopacity="1.0"
     inkscape:pageopacity="0.0"
     inkscape:pageshadow="2"
     inkscape:zoom="1.979899"
     inkscape:cx="286.78185"
     inkscape:cy="-23.051653"
     inkscape:document-units="px"
     inkscape:current-layer="layer1"
     showgrid="false"
     inkscape:window-width="1920"
     inkscape:window-height="1017"
     inkscape:window-x="-8"
     inkscape:window-y="-8"
     inkscape:window-maximized="1"
     units="px"
     inkscape:showpageshadow="false" />
  <metadata
     id="metadata5642">
    <rdf:RDF>
      <cc:Work
         rdf:about="">
        <dc:format>image/svg+xml</dc:format>
        <dc:type
           rdf:resource="http://purl.org/dc/dcmitype/StillImage" />
        <dc:title></dc:title>
      </cc:Work>
    </rdf:RDF>
  </metadata>
  <g
     inkscape:label="Layer 1"
     inkscape:groupmode="layer"
     id="layer1"
     transform="translate(0,-922.36216)">
    <path
       inkscape:connector-curvature="0"
       style="opacity:1;fill:none;fill-opacity:1;fill-rule:evenodd;stroke:#ffffff;stroke-width:1.90228641;stroke-linecap:round;stroke-linejoin:round;stroke-miterlimit:4;stroke-dasharray:none;stroke-dashoffset:14.22999954;stroke-opacity:1"
       d="m 18.59248,998.06933 a 46.458503,10.961459 19.081827 0 0 -9.6918801,3.19677 46.458503,10.961459 19.081827 0 0 40.3222371,25.547 46.458503,10.961459 19.081827 0 0 47.48879,4.829 46.458503,10.961459 19.081827 0 0 -18.962324,-16.6106 l -0.02946,1.677 c -0.204873,3.6701 -0.533347,4.4457 -1.767619,8.0138 -4.84625,2.5477 -46.952737,-12.5014 -46.453774,-16.0702 1.135843,-3.2834 2.906325,-6.1839 5.122715,-8.6132 a 46.458503,10.961459 19.081827 0 0 -16.02867,-1.96957 z"
       id="ellipse6230" />
    <path
       style="fill:none;fill-rule:evenodd;stroke:#ffffff;stroke-width:1.90228641;stroke-linecap:round;stroke-linejoin:miter;stroke-miterlimit:4;stroke-dasharray:none;stroke-opacity:1"
       d="m 80.106433,1030.4067 c 3.342987,0.5321 11.106546,1.6312 11.909773,-0.2004 0.888642,-2.0267 -14.254107,-10.785 -14.420857,-10.5007"
       id="path4342"
       inkscape:connector-curvature="0"
       sodipodi:nodetypes="csc" />
    <path
       sodipodi:nodetypes="csc"
       inkscape:connector-curvature="0"
       id="path4346"
       d="m 24.110961,1011.3405 c 0,0 8.206175,4.205 12.417624,6.0754 4.857319,2.1571 14.801592,5.927 14.801592,5.927"
       style="fill:none;fill-rule:evenodd;stroke:#ffffff;stroke-width:1.90228641;stroke-linecap:round;stroke-linejoin:miter;stroke-miterlimit:4;stroke-dasharray:none;stroke-opacity:1" />
    <path
       sodipodi:nodetypes="cc"
       inkscape:connector-curvature="0"
       id="path4350"
       d="m 65.911188,1031.7599 c 0,0 -2.089654,2.6144 -6.775415,3.8574"
       style="fill:none;fill-rule:evenodd;stroke:#ffffff;stroke-width:1.90228641;stroke-linecap:round;stroke-linejoin:miter;stroke-miterlimit:4;stroke-dasharray:none;stroke-opacity:1" />
    <path
       style="fill:none;fill-rule:evenodd;stroke:#ffffff;stroke-width:1.90228641;stroke-linecap:round;stroke-linejoin:miter;stroke-miterlimit:4;stroke-dasharray:none;stroke-opacity:1"
       d="m 52.854682,1036.4328 c -0.125551,0.061 -4.10742,0.4126 -7.533922,-1.3494"
       id="path4352"
       inkscape:connector-curvature="0"
       sodipodi:nodetypes="cc" />
    <path
       sodipodi:nodetypes="csc"
       inkscape:connector-curvature="0"
       id="path4354"
       d="m 18.850827,1007.7575 c -2.61271,-1.6173 -5.354269,-3.6272 -4.968,-4.6898 0.782767,-2.1535 15.378647,-0.047 17.738522,0.2306"
       style="fill:none;fill-rule:evenodd;stroke:#ffffff;stroke-width:1.90228641;stroke-linecap:round;stroke-linejoin:miter;stroke-miterlimit:4;stroke-dasharray:none;stroke-opacity:1" />
    <g
       id="g4356"
       transform="matrix(0.95114322,0,0,0.95114322,1842.5443,1043.165)"
       style="fill:#ffffff;fill-opacity:1">
      <text
         sodipodi:linespacing="177%"
         id="text4358"
         y="-1.15142"
         x="-1815.1954"
         style="font-style:normal;font-variant:normal;font-weight:400;font-size:52.15811157px;line-height:176.99999809%;font-family:Calibri;text-align:start;letter-spacing:0px;word-spacing:0px;text-anchor:start;fill:#ffffff;fill-opacity:1;stroke:none"
         xml:space="preserve"><tspan
           style="font-style:normal;font-variant:normal;font-weight:300;font-stretch:normal;line-height:176.99999809%;font-family:Montserrat;-inkscape-font-specification:'Montserrat Light';letter-spacing:4.57999897px;fill:#ffffff;fill-opacity:1"
           id="tspan4360"
           y="-1.15142"
           x="-1815.1954"
           sodipodi:role="line">SPACE</tspan></text>
      <text
         xml:space="preserve"
         style="font-style:normal;font-variant:normal;font-weight:400;font-size:63.53969574px;font-family:Calibri;text-align:start;letter-spacing:0px;word-spacing:0px;text-anchor:start;fill:#ffffff;fill-opacity:1;stroke:none"
         x="-1804.4963"
         y="-75.687782"
         id="text4362"><tspan
           sodipodi:role="line"
           x="-1804.4963"
           y="-75.687782"
           id="tspan4364"><tspan
             dx="0"
             dy="0"
             style="font-style:normal;font-variant:normal;font-weight:400;font-family:Calibri;fill:#ffffff;fill-opacity:1"
             id="tspan4366"><tspan
               style="font-style:normal;font-variant:normal;font-weight:normal;font-stretch:normal;font-family:Pacifico;-inkscape-font-specification:Pacifico;fill:#ffffff;fill-opacity:1"
               id="tspan4368">groovy</tspan><tspan
               style="font-style:normal;font-variant:normal;font-weight:normal;font-stretch:normal;font-family:Righteous;-inkscape-font-specification:Righteous;fill:#ffffff;fill-opacity:1"
               id="tspan4370" /></tspan></tspan></text>
    </g>
    <path
       style="fill:none;fill-opacity:1;fill-rule:evenodd;stroke:#ffffff;stroke-width:1.90228641;stroke-linecap:round;stroke-linejoin:round;stroke-miterlimit:4;stroke-dasharray:none;stroke-opacity:1"
       d="m 71.802321,933.6015 0,67.351 c -2.772416,-3.44605 -6.494685,-6.18139 -10.96048,-7.72622 -12.827875,-4.43749 -26.905562,2.59847 -31.343127,15.42632 -0.498963,3.5688 41.607428,18.6168 46.453678,16.0692 1.234272,-3.5681 1.562126,-4.3433 1.766999,-8.0134 l 0.04975,-2.7743 0,-53.98297 c 5.672396,7.90652 23.203139,10.37244 18.668027,26.97568 0,0 2.471898,-3.01748 3.258411,-4.8876 0.992391,-2.35973 1.772921,-5.02858 1.712781,-7.6816 -0.0713,-3.15352 -1.0412,-6.33248 -2.444736,-8.97828 -2.806459,-5.29045 -9.454589,-7.44493 -12.957451,-12.07134 -10.291021,-13.76588 -6.468188,-19.8167 -14.204021,-19.70649 z"
       id="path4336"
       inkscape:connector-curvature="0"
       sodipodi:nodetypes="ccsccccccscsccc" />
    <path
       style="fill:none;fill-rule:evenodd;stroke:#ffffff;stroke-width:1.90228641;stroke-linecap:round;stroke-linejoin:miter;stroke-miterlimit:4;stroke-dasharray:none;stroke-opacity:1"
       d="m 43.142282,998.30335 c 0,0 2.767832,-1.86156 7.329775,-2.46384 5.269077,-0.69563 7.842657,0.45234 7.842657,0.45234"
       id="path4348"
       inkscape:connector-curvature="0"
       sodipodi:nodetypes="csc" />
    <path
       style="opacity:1;fill:none;fill-opacity:1;fill-rule:evenodd;stroke:#ffffff;stroke-width:1.90228641;stroke-linecap:round;stroke-linejoin:round;stroke-miterlimit:4;stroke-dasharray:none;stroke-dashoffset:14.22999954;stroke-opacity:1"
       d="m 28.309469,1018.1071 c 0.660012,9.8435 7.142091,18.3384 16.462113,21.5739 9.337904,3.2299 19.702143,0.5538 26.309025,-6.7932 -6.835222,-1.3945 -14.360077,-3.4859 -21.85777,-6.0747 -7.480403,-2.5893 -14.679204,-5.5861 -20.913368,-8.706 z"
       id="circle6225"
       inkscape:connector-curvature="0"
       sodipodi:nodetypes="ccccc" />
  </g>
</svg>
