<?xml version="1.0" encoding="UTF-8" standalone="no"?>
<!-- Created with Inkscape (http://www.inkscape.org/) -->

<svg
   xmlns:dc="http://purl.org/dc/elements/1.1/"
   xmlns:cc="http://creativecommons.org/ns#"
   xmlns:rdf="http://www.w3.org/1999/02/22-rdf-syntax-ns#"
   xmlns:svg="http://www.w3.org/2000/svg"
   xmlns="http://www.w3.org/2000/svg"
   xmlns:xlink="http://www.w3.org/1999/xlink"
   xmlns:sodipodi="http://sodipodi.sourceforge.net/DTD/sodipodi-0.dtd"
   xmlns:inkscape="http://www.inkscape.org/namespaces/inkscape"
   width="744.09448"
   height="400"
   viewBox="0 0 744.09449 400.00001"
   id="svg6650"
   version="1.1"
   inkscape:version="0.91 r13725"
   sodipodi:docname="logo-neon-niebieski.svg">
  <defs
     id="defs6652">
    <radialGradient
       inkscape:collect="always"
       xlink:href="#linearGradient8089"
       id="radialGradient8095"
       cx="2566.9529"
       cy="-6072.7739"
       fx="2566.9529"
       fy="-6072.7739"
       r="997.33582"
       gradientTransform="matrix(1,0,0,0.6637334,0,-2042.071)"
       gradientUnits="userSpaceOnUse" />
    <linearGradient
       inkscape:collect="always"
       id="linearGradient8089">
      <stop
         style="stop-color:#0096cf;stop-opacity:1;"
         offset="0"
         id="stop8091" />
      <stop
         style="stop-color:#0096cf;stop-opacity:0;"
         offset="1"
         id="stop8093" />
    </linearGradient>
    <radialGradient
       inkscape:collect="always"
       xlink:href="#linearGradient8089"
       id="radialGradient8097"
       gradientUnits="userSpaceOnUse"
       gradientTransform="matrix(1,0,0,0.6637334,0,-2042.071)"
       cx="2566.9529"
       cy="-6072.7739"
       fx="2566.9529"
       fy="-6072.7739"
       r="997.33582" />
    <filter
       inkscape:collect="always"
       style="color-interpolation-filters:sRGB"
       id="filter6542"
       x="-0.12330303"
       width="1.2466061"
       y="-0.21229567"
       height="1.4245913">
      <feGaussianBlur
         inkscape:collect="always"
         stdDeviation="82.206215"
         id="feGaussianBlur6544" />
    </filter>
    <filter
       inkscape:collect="always"
       style="color-interpolation-filters:sRGB"
       id="filter9919-1"
       x="-0.083837718"
       width="1.1676754"
       y="-0.14722638"
       height="1.2944528">
      <feGaussianBlur
         inkscape:collect="always"
         stdDeviation="6.3997526"
         id="feGaussianBlur9921-7" />
    </filter>
    <filter
       inkscape:collect="always"
       style="color-interpolation-filters:sRGB"
       id="filter9915-8"
       x="-0.15543668"
       width="1.3108734"
       y="-0.1344154"
       height="1.2688308">
      <feGaussianBlur
         inkscape:collect="always"
         stdDeviation="10.368424"
         id="feGaussianBlur9917-7" />
    </filter>
    <filter
       inkscape:collect="always"
       style="color-interpolation-filters:sRGB"
       id="filter7933-6"
       x="-0.04914625"
       width="1.0982925"
       y="-0.086305119"
       height="1.1726102">
      <feGaussianBlur
         inkscape:collect="always"
         stdDeviation="3.7515791"
         id="feGaussianBlur7935-7" />
    </filter>
    <filter
       inkscape:collect="always"
       style="color-interpolation-filters:sRGB"
       id="filter7929-1"
       x="-0.091118053"
       width="1.1822361"
       y="-0.078795239"
       height="1.1575905">
      <feGaussianBlur
         inkscape:collect="always"
         stdDeviation="6.0780414"
         id="feGaussianBlur7931-9" />
    </filter>
    <filter
       inkscape:collect="always"
       style="color-interpolation-filters:sRGB"
       id="filter8197-2"
       x="-0.023127645"
       width="1.0462554"
       y="-0.11571973"
       height="1.2314395">
      <feGaussianBlur
         inkscape:collect="always"
         stdDeviation="2.8602547"
         id="feGaussianBlur8199-7" />
    </filter>
    <filter
       inkscape:collect="always"
       style="color-interpolation-filters:sRGB"
       id="filter8193-7"
       x="-0.024478329"
       width="1.0489568"
       y="-0.072246961"
       height="1.1444939">
      <feGaussianBlur
         inkscape:collect="always"
         stdDeviation="2.8602547"
         id="feGaussianBlur8195-2" />
    </filter>
    <filter
       inkscape:collect="always"
       style="color-interpolation-filters:sRGB"
       id="filter8189-2"
       x="-0.042879082"
       width="1.0857582"
       y="-0.03708012"
       height="1.0741602">
      <feGaussianBlur
         inkscape:collect="always"
         stdDeviation="2.8602547"
         id="feGaussianBlur8191-5" />
    </filter>
    <filter
       inkscape:collect="always"
       style="color-interpolation-filters:sRGB"
       id="filter12550-4"
       x="-0.011915411"
       width="1.0238308"
       y="-0.016238824"
       height="1.0324776">
      <feGaussianBlur
         inkscape:collect="always"
         stdDeviation="0.90956291"
         id="feGaussianBlur12552-8" />
    </filter>
    <filter
       inkscape:collect="always"
       style="color-interpolation-filters:sRGB"
       id="filter12546-2"
       x="-0.022091389"
       width="1.0441828"
       y="-0.019103754"
       height="1.0382075">
      <feGaussianBlur
         inkscape:collect="always"
         stdDeviation="1.4490692"
         id="feGaussianBlur12548-5" />
    </filter>
  </defs>
  <sodipodi:namedview
     id="base"
     pagecolor="#ffffff"
     bordercolor="#666666"
     borderopacity="1.0"
     inkscape:pageopacity="0.0"
     inkscape:pageshadow="2"
     inkscape:zoom="0.7"
     inkscape:cx="158.81456"
     inkscape:cy="313.20042"
     inkscape:document-units="px"
     inkscape:current-layer="layer1"
     showgrid="false"
     inkscape:window-width="1920"
     inkscape:window-height="1017"
     inkscape:window-x="-8"
     inkscape:window-y="-8"
     inkscape:window-maximized="1"
     units="px" />
  <metadata
     id="metadata6655">
    <rdf:RDF>
      <cc:Work
         rdf:about="">
        <dc:format>image/svg+xml</dc:format>
        <dc:type
           rdf:resource="http://purl.org/dc/dcmitype/StillImage" />
        <dc:title />
      </cc:Work>
    </rdf:RDF>
  </metadata>
  <g
     inkscape:label="Layer 1"
     inkscape:groupmode="layer"
     id="layer1"
     transform="translate(0,-652.3622)">
    <g
       id="g7023"
       transform="matrix(0.29837756,0,0,0.29837756,-396.09554,2668.6274)"
       style="fill:url(#radialGradient8095);fill-opacity:1">
      <ellipse
         inkscape:export-ydpi="100"
         inkscape:export-xdpi="100"
         ry="464.67017"
         rx="800.04083"
         cy="-6072.7739"
         cx="2566.9529"
         id="ellipse7011"
         style="opacity:0.50899999;fill:url(#radialGradient8097);fill-opacity:1;fill-rule:evenodd;stroke:none;stroke-width:6.52899981;stroke-linecap:square;stroke-linejoin:round;stroke-miterlimit:4;stroke-dasharray:none;stroke-dashoffset:14.22999954;stroke-opacity:0.9372549;filter:url(#filter6542)" />
    </g>
    <g
       id="g8226"
       transform="matrix(1.4444068,0,0,1.4444068,5922.843,6408.5063)">
      <g
         transform="translate(386.88843,-60.609254)"
         id="g8162">
        <text
           transform="matrix(1.3049872,-0.2053905,0,1.3049872,-1911.8724,-4077.3252)"
           xml:space="preserve"
           style="font-style:normal;font-variant:normal;font-weight:400;font-size:52.15811157px;line-height:176.99999809%;font-family:Calibri;text-align:start;letter-spacing:0px;word-spacing:0px;text-anchor:start;fill:#0096cf;fill-opacity:1;stroke:#0096cf;stroke-width:3.20962143;stroke-miterlimit:4;stroke-dasharray:none;stroke-opacity:1;filter:url(#filter9919-1)"
           x="-1815.1954"
           y="-1.15142"
           id="text5763"
           sodipodi:linespacing="177%"><tspan
             sodipodi:role="line"
             x="-1815.1954"
             y="-1.15142"
             id="tspan5765"
             style="font-style:normal;font-variant:normal;font-weight:300;font-stretch:normal;line-height:176.99999809%;font-family:Montserrat;-inkscape-font-specification:'Montserrat Light';letter-spacing:4.57999897px;fill:#0096cf;fill-opacity:1;stroke:#0096cf;stroke-width:3.20962143;stroke-miterlimit:4;stroke-dasharray:none;stroke-opacity:1">SPACE</tspan></text>
        <text
           transform="matrix(1.3049872,-0.2053905,0,1.3049872,-1911.8724,-4077.3252)"
           id="text5767"
           y="-75.687782"
           x="-1804.4963"
           style="font-style:normal;font-variant:normal;font-weight:400;font-size:63.53969574px;font-family:Calibri;text-align:start;letter-spacing:0px;word-spacing:0px;text-anchor:start;fill:#0096cf;fill-opacity:1;stroke:#0096cf;stroke-width:3.20962143;stroke-miterlimit:4;stroke-dasharray:none;stroke-opacity:1;filter:url(#filter9919-1)"
           xml:space="preserve"><tspan
             style="fill:#0096cf;fill-opacity:1;stroke:#0096cf;stroke-width:3.20962143;stroke-miterlimit:4;stroke-dasharray:none;stroke-opacity:1"
             id="tspan5769"
             y="-75.687782"
             x="-1804.4963"
             sodipodi:role="line"><tspan
               id="tspan5771"
               style="font-style:normal;font-variant:normal;font-weight:400;font-family:Calibri;fill:#0096cf;fill-opacity:1;stroke:#0096cf;stroke-width:3.20962143;stroke-miterlimit:4;stroke-dasharray:none;stroke-opacity:1"
               dy="0"
               dx="0"><tspan
                 id="tspan5773"
                 style="font-style:normal;font-variant:normal;font-weight:normal;font-stretch:normal;font-family:Pacifico;-inkscape-font-specification:Pacifico;fill:#0096cf;fill-opacity:1;stroke:#0096cf;stroke-width:3.20962143;stroke-miterlimit:4;stroke-dasharray:none;stroke-opacity:1">groovy</tspan><tspan
                 id="tspan5775"
                 style="font-style:normal;font-variant:normal;font-weight:normal;font-stretch:normal;font-family:Righteous;-inkscape-font-specification:Righteous;fill:#0096cf;fill-opacity:1;stroke:#0096cf;stroke-width:3.20962143;stroke-miterlimit:4;stroke-dasharray:none;stroke-opacity:1" /></tspan></tspan></text>
        <path
           transform="matrix(0.80548361,0,0,0.80548361,-3190.2594,-4807.0252)"
           inkscape:connector-curvature="0"
           id="path5777"
           d="m -1458.8603,1383.9726 c -8.7861,-0.8336 -16.8293,-4.096 -23.634,-9.586 -1.6813,-1.3565 -5.0183,-4.7396 -6.4181,-6.5069 -0.6821,-0.861 -1.7711,-2.3708 -2.4201,-3.3549 -1.3075,-1.9829 -3.5272,-6.3747 -4.3432,-8.5932 -1.1084,-3.0135 -2.0084,-6.7186 -2.36,-9.7158 l -0.1715,-1.4614 -1.873,-0.9817 c -12.3489,-6.4728 -21.0446,-12.3464 -26.267,-17.7424 -4.5647,-4.7164 -6.0344,-8.827 -4.3545,-12.1792 2.6508,-5.2894 13.4583,-6.9274 31.0598,-4.7071 2.6302,0.3318 9.298,1.425 11.6255,1.9059 l 1.4116,0.2917 1.4741,-1.4149 c 6.8318,-6.5574 15.3149,-10.6031 25.003,-11.9245 2.5236,-0.3442 7.7123,-0.3439 10.3489,0 9.0753,1.1856 17.4044,5.0983 23.9837,11.2665 l 1.1556,1.0834 0,-55.0438 c 0,-48.9091 0.025,-55.0925 0.2262,-55.4812 0.4036,-0.7805 0.9583,-0.9442 2.836,-0.837 4.5969,0.2626 7.2023,1.9875 9.2863,6.1481 0.25,0.4992 1.0903,2.5122 1.8674,4.4734 3.2708,8.2553 5.7184,13.0636 9.6329,18.9241 4.1534,6.2181 5.556,7.6278 12.9068,12.9717 8.0769,5.8718 10.3921,8.2808 12.8988,13.4208 3.1459,6.451 4.3675,13.5095 3.3547,19.3843 -0.7389,4.2862 -2.3598,8.7878 -4.2584,11.8265 -1.1257,1.8017 -3.6931,5.2907 -4.3271,5.8803 -0.7744,0.7204 -2.1355,0.4524 -2.5292,-0.4978 -0.1597,-0.3858 -0.1619,-0.6317 -0.011,-1.3118 0.9669,-4.3687 1.1267,-5.7698 1.0139,-8.8868 -0.2012,-5.5618 -2.0945,-9.8541 -6.2563,-14.1833 -2.9044,-3.0212 -5.2236,-4.8148 -12.4148,-9.6011 -5.8501,-3.8935 -7.4277,-5.0449 -10.3213,-7.5327 l -0.6337,-0.5448 0,43.9956 0,43.9956 1.3508,0.7126 c 12.366,6.5233 20.7932,12.2385 25.9363,17.5897 1.8959,1.9725 3.1338,3.6082 3.9287,5.1911 0.868,1.7283 1.0671,2.5119 1.0613,4.1752 -0.01,1.9226 -0.3506,2.8473 -1.5358,4.1313 -2.4567,2.6612 -6.5608,3.9483 -13.6682,4.2865 -7.0452,0.3352 -15.9796,-0.5347 -27.6116,-2.6885 l -1.8154,-0.3361 -0.397,0.4717 c -0.4829,0.5738 -3.5365,3.2738 -4.7696,4.217 -4.9264,3.7687 -10.9995,6.5746 -17.218,7.9552 -3.4419,0.7643 -9.3229,1.1397 -12.7531,0.8143 z m 8.2938,-3.3402 c 5.6694,-0.6632 11.8789,-2.8373 16.6076,-5.8146 1.6303,-1.0265 4.2821,-3.0285 5.5726,-4.2069 l 0.9502,-0.8677 -2.4751,-0.5665 -2.4751,-0.5665 -1.096,0.9147 c -2.4012,2.0037 -5.7592,3.8507 -8.798,4.839 -2.0158,0.6555 -2.6165,0.6724 -3.2662,0.092 -0.3949,-0.3529 -0.4835,-0.5429 -0.4835,-1.0374 0,-1.0299 0.3588,-1.3302 2.3689,-1.9814 2.1799,-0.7063 4.4999,-1.8016 6.1701,-2.9129 l 1.265,-0.8417 -3.2652,-0.8767 c -18.1767,-4.8803 -36.1761,-11.4046 -52.5316,-19.0413 -1.4272,-0.6663 -2.6282,-1.1783 -2.669,-1.1375 -0.1284,0.1283 0.5484,3.4204 1.0899,5.3018 4.3028,14.9492 16.7964,26.0155 32.1365,28.4654 2.4791,0.3959 2.5953,0.4043 6.0355,0.4331 1.8446,0.015 3.7008,-0.058 4.8634,-0.1948 z m -10.6755,-4.4844 c -2.6719,-0.4267 -5.9858,-1.4653 -7.3567,-2.306 -0.6622,-0.406 -0.993,-1.1977 -0.7756,-1.8564 0.3941,-1.1942 1.3423,-1.39 2.9988,-0.619 2.6102,1.2149 5.3112,1.7493 9.1525,1.8107 l 2.8301,0.045 0.413,0.4622 c 0.5788,0.6478 0.5704,1.4695 -0.022,2.1327 l -0.4348,0.4869 -2.7337,0.029 c -1.7858,0.018 -3.1978,-0.046 -4.0717,-0.1851 z m 70.5395,-6.0957 c 6.148,-0.8627 8.9986,-2.8077 8.4016,-5.7323 -1.0036,-4.9167 -9.6167,-12.3543 -23.2281,-20.0577 -2.8305,-1.6019 -5.6942,-3.1215 -5.7533,-3.0528 -0.1162,0.1353 -0.3741,4.0835 -0.269,4.1186 0.3454,0.1152 4.4804,2.4368 6.4677,3.6313 9.0722,5.4534 15.4898,10.2516 17.196,12.8568 1.0718,1.6364 1.009,2.8098 -0.2138,3.9944 -1.2681,1.2287 -3.0407,1.6218 -7.312,1.6218 -3.2935,0 -6.3685,-0.2545 -10.9601,-0.9072 -3.4113,-0.485 -3.7526,-0.6105 -4.0438,-1.4869 -0.331,-0.9965 0.3659,-2.0792 1.3383,-2.0792 0.266,0 1.6211,0.1649 3.0111,0.3666 7.3738,1.0695 13.3274,1.2571 15.1471,0.4771 l 0.5021,-0.2152 -1.342,-1.3231 c -2.1782,-2.1474 -6.829,-5.5034 -12.6688,-9.1418 -2.4182,-1.5065 -7.536,-4.4782 -7.7124,-4.4782 -0.06,0 -0.2482,0.4865 -0.4185,1.0811 -0.4267,1.4896 -1.7847,5.4647 -2.037,5.9629 -0.8338,1.6461 -5.2544,1.7318 -12.8584,0.2494 -15.9094,-3.1013 -45.5474,-13.4023 -60.1828,-20.9169 -5.6425,-2.8971 -8.0711,-4.7884 -8.5812,-6.6829 -0.1304,-0.4844 -0.089,-0.7582 0.2878,-1.8814 0.5111,-1.5258 1.6028,-4.0154 2.3568,-5.3748 0.2886,-0.5204 0.4676,-0.9963 0.3977,-1.0574 -0.07,-0.061 -0.8318,-0.1917 -1.6929,-0.2902 -6.4948,-0.7433 -8.1779,-0.923 -10.8105,-1.1549 -5.7138,-0.5029 -13.6436,-0.3231 -13.6436,0.3093 0,0.2722 1.9999,2.1448 3.3511,3.1376 0.6539,0.4804 1.9416,1.3623 2.8616,1.9596 0.9199,0.5973 1.7436,1.2187 1.8305,1.381 0.087,0.1623 0.1579,0.541 0.1579,0.8416 0,0.731 -0.79,1.5606 -1.486,1.5606 -0.585,0 -0.7066,-0.064 -2.9128,-1.5367 -2.5959,-1.7328 -4.0276,-2.8496 -5.2934,-4.1294 -1.4045,-1.4199 -1.8639,-2.2862 -1.8639,-3.5151 0,-1.2702 0.4787,-1.973 1.7601,-2.5845 1.5967,-0.7621 3.2111,-0.9658 7.5593,-0.9539 4.9817,0.014 10.9474,0.4983 19.4959,1.584 l 2.721,0.3456 1.0461,-1.4269 1.046,-1.4267 -0.5612,-0.1192 c -3.33,-0.7075 -11.085,-1.8218 -15.9195,-2.2874 -3.3634,-0.324 -11.3608,-0.3738 -13.4944,-0.084 -4.6731,0.6345 -7.6258,1.8086 -8.6804,3.4515 -0.4,0.6232 -0.432,0.7722 -0.3862,1.7978 0.056,1.2536 0.521,2.4237 1.5809,3.9779 4.1813,6.1311 16.6467,14.6843 32.6107,22.3758 22.7506,10.9611 48.5636,19.6595 72.4676,24.4197 6.1505,1.2248 13.2134,2.1915 19.0115,2.602 2.7491,0.1947 9.7357,0.071 11.7196,-0.2072 z m -73.824,-18.4119 c -11.6731,-4.5593 -17.1891,-6.8455 -22.3665,-9.27 -4.9892,-2.3364 -17.7278,-8.7264 -17.9947,-9.0266 -0.6327,-0.7116 -0.6383,-1.5883 -0.014,-2.2124 0.8183,-0.8184 0.6719,-0.8706 8.6192,3.0793 13.9584,6.9374 17.8255,8.6154 36.2134,15.7133 2.9855,1.1526 3.4481,1.3746 3.6899,1.7711 0.4386,0.7192 0.3627,1.3675 -0.2293,1.9596 -0.3814,0.3813 -0.6307,0.5048 -1.0065,0.4985 -0.2751,-0.01 -3.3803,-1.1335 -6.9112,-2.5128 z m 47.1338,1.9598 c 0.1749,-0.1168 1.5289,-4.1095 1.9196,-5.6602 0.4192,-1.6644 0.6882,-4.0805 0.8263,-7.422 0.074,-1.8042 0.1381,-24.0678 0.1412,-49.4748 0.01,-51.3008 -0.087,-46.8636 0.9975,-47.3168 0.8347,-0.3488 1.3835,-0.078 2.4248,1.1963 1.2721,1.5568 3.6901,3.8051 5.7536,5.3497 0.9841,0.7367 3.9029,2.7478 6.4862,4.4692 2.5834,1.7214 5.2674,3.5375 5.9644,4.0358 7.6781,5.4887 12.0227,10.9516 13.6302,17.1387 0.5371,2.0672 0.7367,3.6776 0.7484,6.038 0.01,1.1682 0.051,2.1244 0.1,2.1248 0.1528,0 1.4294,-2.6947 1.9059,-4.0251 0.2497,-0.6971 0.6873,-2.0807 0.9725,-3.0748 1.8881,-6.5803 1.0424,-13.7917 -2.4462,-20.8574 -1.2693,-2.5707 -2.4055,-4.0974 -4.7261,-6.3503 -1.6568,-1.6084 -3.0606,-2.7109 -9.3095,-7.3116 -5.4405,-4.0055 -7.464,-6.1553 -11.5616,-12.2833 -3.873,-5.7919 -6.3324,-10.6092 -9.6138,-18.8305 -0.9071,-2.2728 -1.8774,-4.5686 -2.1561,-5.1017 -1.3462,-2.5745 -2.7561,-3.6309 -5.2955,-3.9678 l -0.7279,-0.096 0,56.3231 c 0,50.9824 -0.022,56.3701 -0.2352,56.8186 -0.1401,0.2954 -0.4501,0.5976 -0.767,0.748 -0.7097,0.3368 -1.5002,0.1115 -2.0256,-0.5773 -0.2078,-0.2725 -0.8952,-1.0606 -1.5275,-1.7513 -6.245,-6.8216 -14.4457,-11.1054 -23.9993,-12.5362 -2.0111,-0.3012 -8.3341,-0.2661 -10.4748,0.058 -10.1527,1.5378 -19.1503,6.5457 -25.5207,14.2046 -2.5593,3.077 -5.3024,7.7054 -6.6625,11.2415 l -0.4238,1.1019 0.5164,0.4397 c 8.3593,7.1174 54.2874,23.528 70.9709,25.3587 0.9783,0.1074 3.9509,0.101 4.1155,-0.01 z m -54.7566,-42.0014 c -0.6188,-0.2677 -0.951,-0.7729 -0.951,-1.4464 0,-0.8882 0.5362,-1.3614 2.8266,-2.4944 3.5232,-1.743 7.5361,-2.8799 11.9353,-3.3814 2.7724,-0.3162 8.0714,-0.2395 9.9904,0.1445 2.2525,0.4509 3.223,0.7957 3.6426,1.2943 0.5405,0.6423 0.5244,1.4629 -0.041,2.0957 -0.5314,0.5947 -0.9411,0.6077 -2.8562,0.091 -2.6268,-0.7092 -6.1584,-0.8839 -9.8826,-0.4886 -4.7161,0.5004 -8.16,1.4744 -11.8875,3.3621 -2.0614,1.0439 -2.1836,1.0802 -2.7767,0.8236 z"
           style="fill:#0096cf;fill-opacity:1;stroke:#0096cf;stroke-width:5.19999981;stroke-miterlimit:4;stroke-dasharray:none;stroke-opacity:1;filter:url(#filter9915-8)" />
      </g>
      <g
         transform="translate(431.33515,59.599034)"
         id="g8180">
        <text
           xml:space="preserve"
           style="font-style:normal;font-variant:normal;font-weight:400;font-size:52.15811157px;line-height:176.99999809%;font-family:Calibri;text-align:start;letter-spacing:0px;word-spacing:0px;text-anchor:start;fill:#19c0ff;fill-opacity:1;stroke:#19c0ff;stroke-width:2.16032195;stroke-miterlimit:4;stroke-dasharray:none;stroke-opacity:1;filter:url(#filter7933-6)"
           x="-1815.1954"
           y="-1.15142"
           id="text5785"
           sodipodi:linespacing="177%"
           transform="matrix(1.3049872,-0.2053905,0,1.3049872,-1956.319,-4196.3344)"><tspan
             sodipodi:role="line"
             x="-1815.1954"
             y="-1.15142"
             id="tspan5787"
             style="font-style:normal;font-variant:normal;font-weight:300;font-stretch:normal;line-height:176.99999809%;font-family:Montserrat;-inkscape-font-specification:'Montserrat Light';letter-spacing:4.57999897px;fill:#19c0ff;fill-opacity:1;stroke:#19c0ff;stroke-width:2.16032195;stroke-miterlimit:4;stroke-dasharray:none;stroke-opacity:1">SPACE</tspan></text>
        <text
           id="text5789"
           y="-75.687782"
           x="-1804.4963"
           style="font-style:normal;font-variant:normal;font-weight:400;font-size:63.53969574px;font-family:Calibri;text-align:start;letter-spacing:0px;word-spacing:0px;text-anchor:start;fill:#19c0ff;fill-opacity:1;stroke:#19c0ff;stroke-width:2.16032195;stroke-miterlimit:4;stroke-dasharray:none;stroke-opacity:1;filter:url(#filter7933-6)"
           xml:space="preserve"
           transform="matrix(1.3049872,-0.2053905,0,1.3049872,-1956.319,-4196.3344)"><tspan
             id="tspan5791"
             y="-75.687782"
             x="-1804.4963"
             sodipodi:role="line"><tspan
               id="tspan5793"
               style="font-style:normal;font-variant:normal;font-weight:400;font-family:Calibri;fill:#19c0ff;fill-opacity:1;stroke:#19c0ff;stroke-width:2.16032195;stroke-miterlimit:4;stroke-dasharray:none;stroke-opacity:1"
               dy="0"
               dx="0"><tspan
                 id="tspan5795"
                 style="font-style:normal;font-variant:normal;font-weight:normal;font-stretch:normal;font-family:Pacifico;-inkscape-font-specification:Pacifico;fill:#19c0ff;fill-opacity:1;stroke:#19c0ff;stroke-width:2.16032195;stroke-miterlimit:4;stroke-dasharray:none;stroke-opacity:1">groovy</tspan><tspan
                 id="tspan5797"
                 style="font-style:normal;font-variant:normal;font-weight:normal;font-stretch:normal;font-family:Righteous;-inkscape-font-specification:Righteous;fill:#19c0ff;fill-opacity:1;stroke:#19c0ff;stroke-width:2.16032195;stroke-miterlimit:4;stroke-dasharray:none;stroke-opacity:1" /></tspan></tspan></text>
        <path
           inkscape:connector-curvature="0"
           id="path5799"
           d="m 201.2982,867.46616 c -8.7861,-0.8336 -16.8293,-4.096 -23.634,-9.586 -1.6813,-1.3565 -5.0183,-4.7396 -6.4181,-6.5069 -0.6821,-0.861 -1.7711,-2.3708 -2.4201,-3.3549 -1.3075,-1.9829 -3.5272,-6.3747 -4.3432,-8.5932 -1.1084,-3.0135 -2.0084,-6.7186 -2.36,-9.7158 l -0.1715,-1.4614 -1.873,-0.9817 c -12.3489,-6.4728 -21.0446,-12.3464 -26.267,-17.7424 -4.5647,-4.7164 -6.0344,-8.827 -4.3545,-12.1792 2.6508,-5.2894 13.4583,-6.9274 31.0598,-4.7071 2.6302,0.3318 9.298,1.425 11.6255,1.9059 l 1.4116,0.2917 1.4741,-1.4149 c 6.8318,-6.5574 15.3149,-10.6031 25.003,-11.9245 2.5236,-0.3442 7.7123,-0.3439 10.3489,0 9.0753,1.1856 17.4044,5.0983 23.9837,11.2665 l 1.1556,1.0834 0,-55.0438 c 0,-48.9091 0.025,-55.0925 0.2262,-55.4812 0.4036,-0.7805 0.9583,-0.9442 2.836,-0.837 4.5969,0.2626 7.2023,1.9875 9.2863,6.1481 0.25,0.4992 1.0903,2.5122 1.8674,4.4734 3.2708,8.2553 5.7184,13.0636 9.6329,18.9241 4.1534,6.2181 5.556,7.6278 12.9068,12.9717 8.0769,5.8718 10.3921,8.2808 12.8988,13.4208 3.1459,6.451 4.3675,13.5095 3.3547,19.3843 -0.7389,4.2862 -2.3598,8.7878 -4.2584,11.8265 -1.1257,1.8017 -3.6931,5.2907 -4.3271,5.8803 -0.7744,0.7204 -2.1355,0.4524 -2.5292,-0.4978 -0.1597,-0.3858 -0.1619,-0.6317 -0.011,-1.3118 0.9669,-4.3687 1.1267,-5.7698 1.0139,-8.8868 -0.2012,-5.5618 -2.0945,-9.8541 -6.2563,-14.1833 -2.9044,-3.0212 -5.2236,-4.8148 -12.4148,-9.6011 -5.8501,-3.8935 -7.4277,-5.0449 -10.3213,-7.5327 l -0.6337,-0.5448 0,43.9956 0,43.9956 1.3508,0.7126 c 12.366,6.5233 20.7932,12.2385 25.9363,17.5897 1.8959,1.9725 3.1338,3.6082 3.9287,5.1911 0.868,1.7283 1.0671,2.5119 1.0613,4.1752 -0.01,1.9226 -0.3506,2.8473 -1.5358,4.1313 -2.4567,2.6612 -6.5608,3.9483 -13.6682,4.2865 -7.0452,0.3352 -15.9796,-0.5347 -27.6116,-2.6885 l -1.8154,-0.3361 -0.397,0.4717 c -0.4829,0.5738 -3.5365,3.2738 -4.7696,4.217 -4.9264,3.7687 -10.9995,6.5746 -17.218,7.9552 -3.4419,0.7643 -9.3229,1.1397 -12.7531,0.8143 z m 8.2938,-3.3402 c 5.6694,-0.6632 11.8789,-2.8373 16.6076,-5.8146 1.6303,-1.0265 4.2821,-3.0285 5.5726,-4.2069 l 0.9502,-0.8677 -2.4751,-0.5665 -2.4751,-0.5665 -1.096,0.9147 c -2.4012,2.0037 -5.7592,3.8507 -8.798,4.839 -2.0158,0.6555 -2.6165,0.6724 -3.2662,0.092 -0.3949,-0.3529 -0.4835,-0.5429 -0.4835,-1.0374 0,-1.0299 0.3588,-1.3302 2.3689,-1.9814 2.1799,-0.7063 4.4999,-1.8016 6.1701,-2.9129 l 1.265,-0.8417 -3.2652,-0.8767 c -18.1767,-4.8803 -36.1761,-11.4046 -52.5316,-19.0413 -1.4272,-0.6663 -2.6282,-1.1783 -2.669,-1.1375 -0.1284,0.1283 0.5484,3.4204 1.0899,5.3018 4.3028,14.9492 16.7964,26.0155 32.1365,28.4654 2.4791,0.3959 2.5953,0.4043 6.0355,0.4331 1.8446,0.015 3.7008,-0.058 4.8634,-0.1948 z m -10.6755,-4.4844 c -2.6719,-0.4267 -5.9858,-1.4653 -7.3567,-2.306 -0.6622,-0.406 -0.993,-1.1977 -0.7756,-1.8564 0.3941,-1.1942 1.3423,-1.39 2.9988,-0.619 2.6102,1.2149 5.3112,1.7493 9.1525,1.8107 l 2.8301,0.045 0.413,0.4622 c 0.5788,0.6478 0.5704,1.4695 -0.022,2.1327 l -0.4348,0.4869 -2.7337,0.029 c -1.7858,0.018 -3.1978,-0.046 -4.0717,-0.1851 z m 70.5395,-6.0957 c 6.148,-0.8627 8.9986,-2.8077 8.4016,-5.7323 -1.0036,-4.9167 -9.6167,-12.3543 -23.2281,-20.0577 -2.8305,-1.6019 -5.6942,-3.1215 -5.7533,-3.0528 -0.1162,0.1353 -0.3741,4.0835 -0.269,4.1186 0.3454,0.1152 4.4804,2.4368 6.4677,3.6313 9.0722,5.4534 15.4898,10.2516 17.196,12.8568 1.0718,1.6364 1.009,2.8098 -0.2138,3.9944 -1.2681,1.2287 -3.0407,1.6218 -7.312,1.6218 -3.2935,0 -6.3685,-0.2545 -10.9601,-0.9072 -3.4113,-0.485 -3.7526,-0.6105 -4.0438,-1.4869 -0.331,-0.9965 0.3659,-2.0792 1.3383,-2.0792 0.266,0 1.6211,0.1649 3.0111,0.3666 7.3738,1.0695 13.3274,1.2571 15.1471,0.4771 l 0.5021,-0.2152 -1.342,-1.3231 c -2.1782,-2.1474 -6.829,-5.5034 -12.6688,-9.1418 -2.4182,-1.5065 -7.536,-4.4782 -7.7124,-4.4782 -0.06,0 -0.2482,0.4865 -0.4185,1.0811 -0.4267,1.4896 -1.7847,5.4647 -2.037,5.9629 -0.8338,1.6461 -5.2544,1.7318 -12.8584,0.2494 -15.9094,-3.1013 -45.5474,-13.4023 -60.1828,-20.9169 -5.6425,-2.8971 -8.0711,-4.7884 -8.5812,-6.6829 -0.1304,-0.4844 -0.089,-0.7582 0.2878,-1.8814 0.5111,-1.5258 1.6028,-4.0154 2.3568,-5.3748 0.2886,-0.5204 0.4676,-0.9963 0.3977,-1.0574 -0.07,-0.061 -0.8318,-0.1917 -1.6929,-0.2902 -6.4948,-0.7433 -8.1779,-0.923 -10.8105,-1.1549 -5.7138,-0.5029 -13.6436,-0.3231 -13.6436,0.3093 0,0.2722 1.9999,2.1448 3.3511,3.1376 0.6539,0.4804 1.9416,1.3623 2.8616,1.9596 0.9199,0.5973 1.7436,1.2187 1.8305,1.381 0.087,0.1623 0.1579,0.541 0.1579,0.8416 0,0.731 -0.79,1.5606 -1.486,1.5606 -0.585,0 -0.7066,-0.064 -2.9128,-1.5367 -2.5959,-1.7328 -4.0276,-2.8496 -5.2934,-4.1294 -1.4045,-1.4199 -1.8639,-2.2862 -1.8639,-3.5151 0,-1.2702 0.4787,-1.973 1.7601,-2.5845 1.5967,-0.7621 3.2111,-0.9658 7.5593,-0.9539 4.9817,0.014 10.9474,0.4983 19.4959,1.584 l 2.721,0.3456 1.0461,-1.4269 1.046,-1.4267 -0.5612,-0.1192 c -3.33,-0.7075 -11.085,-1.8218 -15.9195,-2.2874 -3.3634,-0.324 -11.3608,-0.3738 -13.4944,-0.084 -4.6731,0.6345 -7.6258,1.8086 -8.6804,3.4515 -0.4,0.6232 -0.432,0.7722 -0.3862,1.7978 0.056,1.2536 0.521,2.4237 1.5809,3.9779 4.1813,6.1311 16.6467,14.6843 32.6107,22.3758 22.7506,10.9611 48.5636,19.6595 72.4676,24.4197 6.1505,1.2248 13.2134,2.1915 19.0115,2.602 2.7491,0.1947 9.7357,0.071 11.7196,-0.2072 z m -73.824,-18.4119 c -11.6731,-4.5593 -17.1891,-6.8455 -22.3665,-9.27 -4.9892,-2.3364 -17.7278,-8.7264 -17.9947,-9.0266 -0.6327,-0.7116 -0.6383,-1.5883 -0.014,-2.2124 0.8183,-0.8184 0.6719,-0.8706 8.6192,3.0793 13.9584,6.9374 17.8255,8.6154 36.2134,15.7133 2.9855,1.1526 3.4481,1.3746 3.6899,1.7711 0.4386,0.7192 0.3627,1.3675 -0.2293,1.9596 -0.3814,0.3813 -0.6307,0.5048 -1.0065,0.4985 -0.2751,-0.01 -3.3803,-1.1335 -6.9112,-2.5128 z m 47.1338,1.9598 c 0.1749,-0.1168 1.5289,-4.1095 1.9196,-5.6602 0.4192,-1.6644 0.6882,-4.0805 0.8263,-7.422 0.074,-1.8042 0.1381,-24.0678 0.1412,-49.4748 0.01,-51.3008 -0.087,-46.8636 0.9975,-47.3168 0.8347,-0.3488 1.3835,-0.078 2.4248,1.1963 1.2721,1.5568 3.6901,3.8051 5.7536,5.3497 0.9841,0.7367 3.9029,2.7478 6.4862,4.4692 2.5834,1.7214 5.2674,3.5375 5.9644,4.0358 7.6781,5.4887 12.0227,10.9516 13.6302,17.1387 0.5371,2.0672 0.7367,3.6776 0.7484,6.038 0.01,1.1682 0.051,2.1244 0.1,2.1248 0.1528,0 1.4294,-2.6947 1.9059,-4.0251 0.2497,-0.6971 0.6873,-2.0807 0.9725,-3.0748 1.8881,-6.5803 1.0424,-13.7917 -2.4462,-20.8574 -1.2693,-2.5707 -2.4055,-4.0974 -4.7261,-6.3503 -1.6568,-1.6084 -3.0606,-2.7109 -9.3095,-7.3116 -5.4405,-4.0055 -7.464,-6.1553 -11.5616,-12.2833 -3.873,-5.7919 -6.3324,-10.6092 -9.6138,-18.8305 -0.9071,-2.2728 -1.8774,-4.5686 -2.1561,-5.1017 -1.3462,-2.5745 -2.7561,-3.6309 -5.2955,-3.9678 l -0.7279,-0.096 0,56.3231 c 0,50.9824 -0.022,56.3701 -0.2352,56.8186 -0.1401,0.2954 -0.4501,0.5976 -0.767,0.748 -0.7097,0.3368 -1.5002,0.1115 -2.0256,-0.5773 -0.2078,-0.2725 -0.8952,-1.0606 -1.5275,-1.7513 -6.245,-6.8216 -14.4457,-11.1054 -23.9993,-12.5362 -2.0111,-0.3012 -8.3341,-0.2661 -10.4748,0.058 -10.1527,1.5378 -19.1503,6.5457 -25.5207,14.2046 -2.5593,3.077 -5.3024,7.7054 -6.6625,11.2415 l -0.4238,1.1019 0.5164,0.4397 c 8.3593,7.1174 54.2874,23.528 70.9709,25.3587 0.9783,0.1074 3.9509,0.101 4.1155,-0.01 z m -54.7566,-42.0014 c -0.6188,-0.2677 -0.951,-0.7729 -0.951,-1.4464 0,-0.8882 0.5362,-1.3614 2.8266,-2.4944 3.5232,-1.743 7.5361,-2.8799 11.9353,-3.3814 2.7724,-0.3162 8.0714,-0.2395 9.9904,0.1445 2.2525,0.4509 3.223,0.7957 3.6426,1.2943 0.5405,0.6423 0.5244,1.4629 -0.041,2.0957 -0.5314,0.5947 -0.9411,0.6077 -2.8562,0.091 -2.6268,-0.7092 -6.1584,-0.8839 -9.8826,-0.4886 -4.7161,0.5004 -8.16,1.4744 -11.8875,3.3621 -2.0614,1.0439 -2.1836,1.0802 -2.7767,0.8236 z"
           style="fill:#19c0ff;fill-opacity:1;stroke:#19c0ff;stroke-width:3.5;stroke-miterlimit:4;stroke-dasharray:none;stroke-opacity:1;filter:url(#filter7929-1)"
           transform="matrix(0.80548361,0,0,0.80548361,-4571.9367,-4509.997)" />
      </g>
      <g
         transform="translate(348.50265,-230.31481)"
         id="g8198">
        <text
           sodipodi:linespacing="177%"
           id="text5803"
           y="1667.303"
           x="271.5899"
           style="font-style:normal;font-variant:normal;font-weight:400;font-size:84.50286102px;line-height:176.99999809%;font-family:Calibri;text-align:start;letter-spacing:0px;word-spacing:0px;text-anchor:start;fill:#84ddff;fill-opacity:1;stroke:#84ddff;stroke-width:2;stroke-miterlimit:4;stroke-dasharray:none;stroke-opacity:1;filter:url(#filter8197-2)"
           xml:space="preserve"
           transform="matrix(0.80548361,-0.12677418,0,0.80548361,-4461.0547,-4841.5202)"><tspan
             style="font-style:normal;font-variant:normal;font-weight:300;font-stretch:normal;line-height:176.99999809%;font-family:Montserrat;-inkscape-font-specification:'Montserrat Light';letter-spacing:7.42018843px;fill:#84ddff;fill-opacity:1;stroke:#84ddff;stroke-width:2;stroke-miterlimit:4;stroke-dasharray:none;stroke-opacity:1"
             id="tspan5805"
             y="1667.303"
             x="271.5899"
             sodipodi:role="line">SPACE</tspan></text>
        <text
           xml:space="preserve"
           style="font-style:normal;font-variant:normal;font-weight:400;font-size:102.94248962px;font-family:Calibri;text-align:start;letter-spacing:0px;word-spacing:0px;text-anchor:start;fill:#84ddff;fill-opacity:1;stroke:#84ddff;stroke-width:2;stroke-miterlimit:4;stroke-dasharray:none;stroke-opacity:1;filter:url(#filter8193-7)"
           x="288.92377"
           y="1546.5446"
           id="text5809"
           transform="matrix(0.80548361,-0.12677418,0,0.80548361,-4461.0547,-4841.5202)"><tspan
             sodipodi:role="line"
             x="288.92377"
             y="1546.5446"
             id="tspan5811"><tspan
               dx="0"
               dy="0"
               style="font-style:normal;font-variant:normal;font-weight:400;font-family:Calibri;fill:#84ddff;fill-opacity:1;stroke:#84ddff;stroke-width:2;stroke-miterlimit:4;stroke-dasharray:none;stroke-opacity:1"
               id="tspan5813"><tspan
                 style="font-style:normal;font-variant:normal;font-weight:normal;font-stretch:normal;font-family:Pacifico;-inkscape-font-specification:Pacifico;fill:#84ddff;fill-opacity:1;stroke:#84ddff;stroke-width:2;stroke-miterlimit:4;stroke-dasharray:none;stroke-opacity:1"
                 id="tspan5815">groovy</tspan><tspan
                 style="font-style:normal;font-variant:normal;font-weight:normal;font-stretch:normal;font-family:Righteous;-inkscape-font-specification:Righteous;fill:#84ddff;fill-opacity:1;stroke:#84ddff;stroke-width:2;stroke-miterlimit:4;stroke-dasharray:none;stroke-opacity:1"
                 id="tspan5817" /></tspan></tspan></text>
        <path
           style="fill:#84ddff;fill-opacity:1;stroke:#84ddff;stroke-width:2;stroke-miterlimit:4;stroke-dasharray:none;stroke-opacity:1;filter:url(#filter8189-2)"
           d="m -1458.8604,1383.9726 c -8.7861,-0.8336 -16.8292,-4.096 -23.6339,-9.586 -1.6813,-1.3565 -5.0183,-4.7396 -6.4182,-6.5069 -0.6821,-0.861 -1.7711,-2.3708 -2.4201,-3.3549 -1.3074,-1.9829 -3.5272,-6.3747 -4.3432,-8.5932 -1.1083,-3.0135 -2.0084,-6.7186 -2.36,-9.7158 l -0.1715,-1.4614 -1.8729,-0.9817 c -12.349,-6.4728 -21.0447,-12.3464 -26.2671,-17.7424 -4.5646,-4.7164 -6.0343,-8.827 -4.3544,-12.1792 2.6507,-5.2894 13.4582,-6.9274 31.0597,-4.7071 2.6302,0.3318 9.2981,1.425 11.6256,1.9059 l 1.4115,0.2917 1.4742,-1.4149 c 6.8318,-6.5574 15.3148,-10.6031 25.0029,-11.9245 2.5236,-0.3441 7.7124,-0.3439 10.3489,0 9.0754,1.1857 17.4044,5.0983 23.9837,11.2665 l 1.1556,1.0834 0,-55.0438 c 0,-48.9091 0.025,-55.0925 0.2262,-55.4812 0.4036,-0.7805 0.9583,-0.9442 2.8361,-0.8369 4.5969,0.2625 7.2023,1.9875 9.2863,6.1481 0.25,0.4991 1.0903,2.5121 1.8673,4.4733 3.2709,8.2553 5.7184,13.0637 9.633,18.9241 4.1534,6.2182 5.556,7.6278 12.9068,12.9718 8.0768,5.8717 10.3921,8.2807 12.8987,13.4207 3.1459,6.451 4.3675,13.5096 3.3547,19.3844 -0.7389,4.2861 -2.3598,8.7877 -4.2584,11.8265 -1.1256,1.8016 -3.693,5.2907 -4.327,5.8803 -0.7745,0.7203 -2.1356,0.4523 -2.5292,-0.4979 -0.1598,-0.3857 -0.1619,-0.6317 -0.011,-1.3118 0.9668,-4.3687 1.1267,-5.7697 1.0139,-8.8868 -0.2012,-5.5618 -2.0946,-9.8541 -6.2564,-14.1833 -2.9044,-3.0212 -5.2236,-4.8147 -12.4148,-9.601 -5.85,-3.8936 -7.4277,-5.045 -10.3213,-7.5327 l -0.6337,-0.5449 0,43.9956 0,43.9956 1.3508,0.7126 c 12.366,6.5233 20.7933,12.2385 25.9364,17.5897 1.8958,1.9725 3.1337,3.6082 3.9287,5.1911 0.8679,1.7283 1.0671,2.5119 1.0612,4.1752 -0.01,1.9226 -0.3506,2.8473 -1.5358,4.1313 -2.4566,2.6612 -6.5607,3.9483 -13.6682,4.2865 -7.0451,0.3352 -15.9796,-0.5347 -27.6115,-2.6885 l -1.8155,-0.3361 -0.3969,0.4717 c -0.4829,0.5738 -3.5366,3.2738 -4.7696,4.217 -4.9265,3.7687 -10.9995,6.5746 -17.2181,7.9552 -3.4419,0.7643 -9.3228,1.1397 -12.7531,0.8143 z m 8.2938,-3.3402 c 5.6694,-0.6632 11.879,-2.8373 16.6076,-5.8146 1.6303,-1.0265 4.2821,-3.0285 5.5726,-4.2069 l 0.9502,-0.8677 -2.4751,-0.5665 -2.4751,-0.5665 -1.096,0.9147 c -2.4011,2.0037 -5.7592,3.8507 -8.798,4.839 -2.0158,0.6555 -2.6165,0.6724 -3.2661,0.092 -0.395,-0.3529 -0.4836,-0.5429 -0.4836,-1.0374 0,-1.0299 0.3588,-1.3302 2.3689,-1.9814 2.1799,-0.7063 4.5,-1.8016 6.1701,-2.9129 l 1.265,-0.8417 -3.2652,-0.8767 c -18.1767,-4.8803 -36.176,-11.4046 -52.5316,-19.0413 -1.4272,-0.6663 -2.6282,-1.1783 -2.6689,-1.1375 -0.1284,0.1283 0.5483,3.4204 1.0899,5.3018 4.3028,14.9492 16.7963,26.0155 32.1364,28.4654 2.4792,0.3959 2.5953,0.4043 6.0356,0.4331 1.8445,0.015 3.7007,-0.058 4.8633,-0.1948 z m -10.6754,-4.4844 c -2.672,-0.4267 -5.9859,-1.4653 -7.3568,-2.306 -0.6622,-0.406 -0.993,-1.1977 -0.7756,-1.8564 0.3942,-1.1942 1.3424,-1.39 2.9988,-0.619 2.6102,1.2149 5.3113,1.7493 9.1525,1.8107 l 2.8302,0.045 0.413,0.4622 c 0.5787,0.6478 0.5703,1.4695 -0.022,2.1327 l -0.4348,0.4869 -2.7338,0.029 c -1.7857,0.018 -3.1978,-0.046 -4.0717,-0.1851 z m 70.5394,-6.0957 c 6.148,-0.8627 8.9987,-2.8077 8.4017,-5.7323 -1.0037,-4.9167 -9.6168,-12.3543 -23.2282,-20.0577 -2.8305,-1.6019 -5.6942,-3.1215 -5.7533,-3.0528 -0.1162,0.1353 -0.374,4.0835 -0.2689,4.1186 0.3453,0.1152 4.4804,2.4368 6.4676,3.6313 9.0723,5.4534 15.4899,10.2516 17.196,12.8568 1.0718,1.6364 1.009,2.8098 -0.2137,3.9944 -1.2682,1.2287 -3.0407,1.6218 -7.312,1.6218 -3.2935,0 -6.3686,-0.2545 -10.9602,-0.9072 -3.4112,-0.485 -3.7526,-0.6105 -4.0437,-1.4869 -0.331,-0.9965 0.3658,-2.0792 1.3382,-2.0792 0.2661,0 1.6211,0.1649 3.0112,0.3666 7.3738,1.0695 13.3274,1.2571 15.1471,0.4771 l 0.502,-0.2152 -1.342,-1.3231 c -2.1782,-2.1474 -6.8289,-5.5034 -12.6688,-9.1418 -2.4182,-1.5065 -7.5359,-4.4782 -7.7123,-4.4782 -0.06,0 -0.2483,0.4865 -0.4186,1.0811 -0.4267,1.4896 -1.7846,5.4647 -2.037,5.9629 -0.8338,1.6461 -5.2543,1.7318 -12.8584,0.2494 -15.9094,-3.1013 -45.5474,-13.4023 -60.1827,-20.9169 -5.6426,-2.8971 -8.0711,-4.7884 -8.5812,-6.6829 -0.1305,-0.4844 -0.089,-0.7582 0.2877,-1.8814 0.5112,-1.5258 1.6029,-4.0154 2.3568,-5.3748 0.2887,-0.5204 0.4676,-0.9963 0.3977,-1.0574 -0.07,-0.061 -0.8318,-0.1917 -1.6929,-0.2902 -6.4948,-0.7433 -8.1778,-0.923 -10.8105,-1.1549 -5.7138,-0.5029 -13.6435,-0.3231 -13.6435,0.3093 0,0.2722 1.9998,2.1448 3.351,3.1376 0.6539,0.4804 1.9416,1.3623 2.8616,1.9596 0.9199,0.5973 1.7437,1.2187 1.8305,1.381 0.087,0.1623 0.1579,0.541 0.1579,0.8416 0,0.731 -0.79,1.5606 -1.486,1.5606 -0.5849,0 -0.7066,-0.064 -2.9127,-1.5367 -2.596,-1.7328 -4.0277,-2.8496 -5.2935,-4.1294 -1.4044,-1.4199 -1.8638,-2.2862 -1.8638,-3.5151 0,-1.2702 0.4786,-1.973 1.7601,-2.5845 1.5966,-0.7621 3.2111,-0.9658 7.5593,-0.9539 4.9816,0.014 10.9474,0.4983 19.4959,1.584 l 2.721,0.3456 1.046,-1.4269 1.046,-1.4267 -0.5611,-0.1192 c -3.3301,-0.7075 -11.085,-1.8218 -15.9196,-2.2874 -3.3634,-0.324 -11.3608,-0.3738 -13.4944,-0.084 -4.673,0.6345 -7.6258,1.8086 -8.6803,3.4515 -0.4,0.6232 -0.432,0.7722 -0.3862,1.7978 0.056,1.2536 0.5209,2.4237 1.5808,3.9779 4.1814,6.1311 16.6468,14.6843 32.6108,22.3758 22.7505,10.9611 48.5635,19.6595 72.4675,24.4197 6.1505,1.2248 13.2134,2.1915 19.0115,2.602 2.7491,0.1947 9.7358,0.071 11.7196,-0.2072 z m -73.824,-18.4119 c -11.6731,-4.5593 -17.1891,-6.8455 -22.3665,-9.27 -4.9892,-2.3364 -17.7278,-8.7264 -17.9947,-9.0266 -0.6326,-0.7116 -0.6383,-1.5883 -0.014,-2.2124 0.8183,-0.8184 0.672,-0.8706 8.6192,3.0793 13.9585,6.9374 17.8256,8.6154 36.2135,15.7133 2.9854,1.1526 3.448,1.3746 3.6899,1.7711 0.4385,0.7192 0.3626,1.3675 -0.2294,1.9596 -0.3814,0.3813 -0.6306,0.5048 -1.0065,0.4985 -0.275,-0.01 -3.3802,-1.1335 -6.9112,-2.5128 z m 47.1338,1.9598 c 0.1749,-0.1168 1.529,-4.1095 1.9196,-5.6602 0.4193,-1.6644 0.6882,-4.0805 0.8263,-7.422 0.074,-1.8042 0.1381,-24.0678 0.1412,-49.4747 0.01,-51.3009 -0.087,-46.8636 0.9975,-47.3169 0.8348,-0.3488 1.3836,-0.078 2.4249,1.1963 1.272,1.5568 3.6901,3.8051 5.7535,5.3497 0.9841,0.7367 3.903,2.7479 6.4863,4.4693 2.5833,1.7213 5.2673,3.5375 5.9644,4.0358 7.678,5.4886 12.0226,10.9516 13.6302,17.1386 0.5371,2.0672 0.7367,3.6776 0.7484,6.038 0.01,1.1682 0.051,2.1244 0.1,2.1248 0.1527,0 1.4293,-2.6947 1.9058,-4.0251 0.2497,-0.6971 0.6874,-2.0807 0.9726,-3.0747 1.8881,-6.5803 1.0423,-13.7918 -2.4463,-20.8575 -1.2692,-2.5706 -2.4055,-4.0974 -4.7261,-6.3502 -1.6568,-1.6085 -3.0605,-2.711 -9.3094,-7.3117 -5.4405,-4.0055 -7.464,-6.1553 -11.5617,-12.2832 -3.8729,-5.792 -6.3324,-10.6093 -9.6137,-18.8306 -0.9072,-2.2728 -1.8775,-4.5686 -2.1562,-5.1016 -1.3462,-2.5746 -2.756,-3.631 -5.2955,-3.9679 l -0.7279,-0.096 0,56.3231 c 0,50.9824 -0.022,56.3701 -0.2351,56.8186 -0.1402,0.2954 -0.4501,0.5976 -0.767,0.748 -0.7098,0.3368 -1.5002,0.1115 -2.0256,-0.5773 -0.2079,-0.2725 -0.8952,-1.0606 -1.5275,-1.7513 -6.2451,-6.8216 -14.4458,-11.1053 -23.9993,-12.5362 -2.0112,-0.3012 -8.3342,-0.2661 -10.4749,0.058 -10.1527,1.5378 -19.1503,6.5457 -25.5207,14.2046 -2.5593,3.077 -5.3024,7.7054 -6.6624,11.2415 l -0.4239,1.1019 0.5164,0.4397 c 8.3594,7.1174 54.2874,23.528 70.9709,25.3587 0.9784,0.1074 3.951,0.101 4.1155,-0.01 z m -54.7565,-42.0014 c -0.6188,-0.2677 -0.9511,-0.7729 -0.9511,-1.4464 0,-0.8882 0.5362,-1.3614 2.8266,-2.4944 3.5233,-1.743 7.5362,-2.8799 11.9353,-3.3814 2.7725,-0.3162 8.0714,-0.2394 9.9904,0.1446 2.2525,0.4508 3.2231,0.7956 3.6426,1.2942 0.5405,0.6423 0.5245,1.4629 -0.041,2.0957 -0.5314,0.5947 -0.941,0.6077 -2.8562,0.091 -2.6268,-0.7092 -6.1584,-0.8839 -9.8825,-0.4886 -4.7162,0.5004 -8.16,1.4744 -11.8876,3.3621 -2.0614,1.0439 -2.1836,1.0802 -2.7766,0.8236 z"
           id="path5819"
           inkscape:connector-curvature="0"
           transform="matrix(0.80548361,0,0,0.80548361,-3151.8736,-4633.9868)" />
      </g>
      <g
         transform="translate(-33.190128,-205.50879)"
         id="g8216">
        <text
           sodipodi:linespacing="177%"
           id="text5825"
           y="-1.15142"
           x="-1815.1954"
           style="font-style:normal;font-variant:normal;font-weight:400;font-size:52.15811157px;line-height:176.99999809%;font-family:Calibri;text-align:start;letter-spacing:0px;word-spacing:0px;text-anchor:start;fill:#006e98;fill-opacity:1;stroke:none;stroke-width:0;stroke-miterlimit:4;stroke-dasharray:none;stroke-opacity:1;filter:url(#filter12550-4)"
           xml:space="preserve"
           transform="matrix(1.2832554,-0.20197016,0,1.2832554,-1530.1039,-3922.313)"><tspan
             style="font-style:normal;font-variant:normal;font-weight:300;font-stretch:normal;line-height:176.99999809%;font-family:Montserrat;-inkscape-font-specification:'Montserrat Light';letter-spacing:4.57999897px;fill:#006e98;fill-opacity:1;stroke:none;stroke-width:0;stroke-miterlimit:4;stroke-dasharray:none;stroke-opacity:1"
             id="tspan5827"
             y="-1.15142"
             x="-1815.1954"
             sodipodi:role="line">SPACE</tspan></text>
        <text
           xml:space="preserve"
           style="font-style:normal;font-variant:normal;font-weight:400;font-size:63.53969574px;font-family:Calibri;text-align:start;letter-spacing:0px;word-spacing:0px;text-anchor:start;fill:#006e98;fill-opacity:1;stroke:none;stroke-width:0;stroke-miterlimit:4;stroke-dasharray:none;stroke-opacity:1;filter:url(#filter12550-4)"
           x="-1804.4963"
           y="-75.687782"
           id="text5829"
           transform="matrix(1.2832554,-0.20197016,0,1.2832554,-1530.1039,-3922.313)"><tspan
             sodipodi:role="line"
             x="-1804.4963"
             y="-75.687782"
             id="tspan5831"><tspan
               dx="0"
               dy="0"
               style="font-style:normal;font-variant:normal;font-weight:400;font-family:Calibri;fill:#006e98;fill-opacity:1;stroke:none;stroke-width:0;stroke-miterlimit:4;stroke-dasharray:none;stroke-opacity:1"
               id="tspan5833"><tspan
                 style="font-style:normal;font-variant:normal;font-weight:normal;font-stretch:normal;font-family:Pacifico;-inkscape-font-specification:Pacifico;fill:#006e98;fill-opacity:1;stroke:none;stroke-width:0;stroke-miterlimit:4;stroke-dasharray:none;stroke-opacity:1"
                 id="tspan5835">groovy</tspan><tspan
                 style="font-style:normal;font-variant:normal;font-weight:normal;font-stretch:normal;font-family:Righteous;-inkscape-font-specification:Righteous;fill:#006e98;fill-opacity:1;stroke:none;stroke-width:0;stroke-miterlimit:4;stroke-dasharray:none;stroke-opacity:1"
                 id="tspan5837" /></tspan></tspan></text>
        <path
           transform="matrix(0.80548361,0,0,0.80548361,-4108.9241,-4241.8384)"
           inkscape:connector-curvature="0"
           id="path5839"
           d="m 206.43968,867.45355 c -8.6398,-0.8197 -16.549,-4.0278 -23.2404,-9.4263 -1.6533,-1.334 -4.9347,-4.6607 -6.3112,-6.3986 -0.6708,-0.8466 -1.7417,-2.3313 -2.3798,-3.299 -1.2857,-1.9499 -3.4685,-6.2686 -4.2709,-8.4501 -1.0899,-2.9633 -1.9749,-6.6067 -2.3207,-9.554 l -0.1686,-1.4371 -1.8418,-0.9653 c -12.1433,-6.365 -20.6942,-12.1408 -25.8296,-17.447 -4.4887,-4.6378 -5.9339,-8.68 -4.282,-11.9763 2.6067,-5.2014 13.2342,-6.8121 30.5425,-4.6288 2.5865,0.3263 9.1433,1.4013 11.432,1.8742 l 1.388,0.2868 1.4496,-1.3913 c 6.7181,-6.4482 15.0598,-10.4265 24.5866,-11.7259 2.4816,-0.3385 7.584,-0.3382 10.1766,0 8.9242,1.1659 17.1145,5.0133 23.5843,11.0789 l 1.1363,1.0653 0,-54.1271 c 0,-48.0947 0.025,-54.1751 0.2225,-54.5573 0.3969,-0.7675 0.9423,-0.9285 2.7888,-0.823 4.5203,0.2581 7.0824,1.9543 9.1317,6.0457 0.2458,0.4908 1.0721,2.4703 1.8362,4.3988 3.2164,8.1179 5.6232,12.8461 9.4725,18.609 4.0843,6.1146 5.4635,7.5007 12.6919,12.7557 7.9423,5.774 10.2191,8.1429 12.6839,13.1973 3.0936,6.3436 4.2948,13.2845 3.2989,19.0615 -0.7266,4.2148 -2.3205,8.6414 -4.1875,11.6296 -1.1069,1.7716 -3.6315,5.2026 -4.255,5.7824 -0.7615,0.7083 -2.1,0.4448 -2.4871,-0.4896 -0.1571,-0.3793 -0.1592,-0.6212 -0.011,-1.29 0.9508,-4.2959 1.108,-5.6736 0.9971,-8.7388 -0.1979,-5.4692 -2.0597,-9.69 -6.1522,-13.947 -2.856,-2.9709 -5.1366,-4.7346 -12.2081,-9.4412 -5.7526,-3.8288 -7.304,-4.961 -10.1494,-7.4073 l -0.6232,-0.5357 0,43.2629 0,43.2629 1.3284,0.7008 c 12.16,6.4146 20.4469,12.0346 25.5044,17.2967 1.8643,1.9397 3.0816,3.5481 3.8633,5.1047 0.8535,1.6995 1.0493,2.4701 1.0435,4.1057 -0.01,1.8905 -0.3447,2.7998 -1.5102,4.0625 -2.4157,2.6168 -6.4514,3.8825 -13.4406,4.2151 -6.9277,0.3296 -15.7134,-0.5258 -27.1517,-2.6437 l -1.7852,-0.3306 -0.3903,0.4639 c -0.4749,0.5642 -3.4777,3.2193 -4.6902,4.1468 -4.8444,3.7059 -10.8164,6.4651 -16.9313,7.8227 -3.3846,0.7516 -9.1676,1.1207 -12.5408,0.8007 z m 8.1557,-3.2846 c 5.575,-0.6521 11.6811,-2.79 16.3311,-5.7177 1.6031,-1.0094 4.2107,-2.9781 5.4798,-4.1369 l 0.9343,-0.8532 -2.4339,-0.5571 -2.4339,-0.557 -1.0777,0.8994 c -2.3612,1.9704 -5.6633,3.7866 -8.6515,4.7584 -1.9822,0.6446 -2.5729,0.6612 -3.2117,0.091 -0.3884,-0.347 -0.4756,-0.5339 -0.4756,-1.0201 0,-1.0128 0.3529,-1.3081 2.3295,-1.9484 2.1436,-0.6946 4.425,-1.7716 6.0674,-2.8644 l 1.2439,-0.8277 -3.2108,-0.8621 c -17.874,-4.799 -35.5736,-11.2147 -51.6568,-18.7242 -1.4034,-0.6552 -2.5845,-1.1587 -2.6245,-1.1186 -0.1263,0.1262 0.5392,3.3635 1.0717,5.2135 4.2312,14.7003 16.5167,25.5823 31.6013,27.9914 2.4379,0.3893 2.5521,0.3976 5.9351,0.4259 1.8138,0.015 3.6391,-0.057 4.7823,-0.1916 z m -10.4977,-4.4097 c -2.6274,-0.4196 -5.8862,-1.4409 -7.2342,-2.2676 -0.6512,-0.3992 -0.9765,-1.1777 -0.7627,-1.8255 0.3876,-1.1743 1.32,-1.3668 2.9489,-0.6087 2.5667,1.1947 5.2228,1.7202 9,1.7806 l 2.7831,0.044 0.4061,0.4545 c 0.5691,0.6371 0.5608,1.4451 -0.022,2.0972 l -0.4276,0.4788 -2.6882,0.029 c -1.756,0.018 -3.1445,-0.045 -4.0039,-0.182 z m 69.3648,-5.9942 c 6.0456,-0.8483 8.8488,-2.7609 8.2618,-5.6368 -0.987,-4.8348 -9.4567,-12.1486 -22.8414,-19.7237 -2.7833,-1.5752 -5.5994,-3.0695 -5.6575,-3.0019 -0.1142,0.133 -0.3678,4.0154 -0.2644,4.05 0.3396,0.1132 4.4057,2.3962 6.3599,3.5708 8.9212,5.3626 15.2319,10.0809 16.9096,12.6427 1.054,1.6091 0.9922,2.763 -0.2102,3.9279 -1.247,1.2082 -2.99,1.5948 -7.1902,1.5948 -3.2386,0 -6.2625,-0.2503 -10.7776,-0.8921 -3.3545,-0.477 -3.6901,-0.6004 -3.9764,-1.4622 -0.3256,-0.9799 0.3597,-2.0445 1.3159,-2.0445 0.2616,0 1.5941,0.1621 2.961,0.3605 7.251,1.0516 13.1055,1.2361 14.8949,0.4691 l 0.4937,-0.2116 -1.3197,-1.3011 c -2.1419,-2.1116 -6.7152,-5.4117 -12.4578,-8.9895 -2.3779,-1.4814 -7.4105,-4.4037 -7.5839,-4.4037 -0.059,0 -0.2441,0.4784 -0.4116,1.0631 -0.4196,1.4648 -1.7549,5.3737 -2.0031,5.8636 -0.8199,1.6187 -5.1668,1.703 -12.6443,0.2453 -15.6444,-3.0497 -44.7889,-13.1791 -59.1805,-20.5686 -5.5486,-2.8488 -7.9367,-4.7087 -8.4383,-6.5716 -0.1283,-0.4763 -0.087,-0.7456 0.2829,-1.8501 0.5027,-1.5004 1.5762,-3.9485 2.3176,-5.2853 0.2839,-0.5117 0.4599,-0.9797 0.3911,-1.0398 -0.069,-0.06 -0.8179,-0.1885 -1.6647,-0.2853 -6.3866,-0.7309 -8.0417,-0.9077 -10.6305,-1.1357 -5.6187,-0.4945 -13.4163,-0.3177 -13.4163,0.3042 0,0.2676 1.9665,2.109 3.2952,3.0853 0.643,0.4724 1.9093,1.3396 2.8139,1.927 0.9047,0.5873 1.7147,1.1984 1.8001,1.358 0.085,0.1596 0.1552,0.532 0.1552,0.8276 0,0.7188 -0.7768,1.5346 -1.4612,1.5346 -0.5752,0 -0.6948,-0.063 -2.8642,-1.5111 -2.5528,-1.704 -3.9606,-2.8022 -5.2053,-4.0607 -1.3811,-1.3962 -1.8328,-2.2481 -1.8328,-3.4565 0,-1.2491 0.4706,-1.9402 1.7307,-2.5415 1.5701,-0.7494 3.1577,-0.9497 7.4334,-0.938 4.8987,0.014 10.7651,0.49 19.1713,1.5576 l 2.6757,0.3399 1.0286,-1.4032 1.0286,-1.4029 -0.5518,-0.1172 c -3.2746,-0.6957 -10.9004,-1.7915 -15.6544,-2.2493 -3.3075,-0.3186 -11.1717,-0.3676 -13.2698,-0.083 -4.5952,0.6239 -7.4988,1.7785 -8.5357,3.394 -0.3934,0.6128 -0.4248,0.7593 -0.3798,1.7679 0.055,1.2327 0.5122,2.3833 1.5545,3.9116 4.1117,6.029 16.3695,14.4398 32.0677,22.0032 22.3717,10.7785 47.7549,19.3321 71.2607,24.013 6.0481,1.2044 12.9934,2.155 18.695,2.5587 2.7033,0.1914 9.5736,0.07 11.5244,-0.2038 z m -72.5946,-18.1053 c -11.4787,-4.4833 -16.9029,-6.7315 -21.994,-9.1156 -4.9062,-2.2975 -17.4326,-8.5811 -17.6951,-8.8763 -0.6221,-0.6997 -0.6277,-1.5618 -0.014,-2.1755 0.8047,-0.8048 0.6608,-0.8561 8.4757,3.028 13.726,6.8219 17.5287,8.4719 35.6104,15.4516 2.9357,1.1334 3.3906,1.3517 3.6284,1.7416 0.4313,0.7073 0.3567,1.3448 -0.2255,1.927 -0.375,0.375 -0.6202,0.4964 -0.9897,0.4902 -0.2705,-0.01 -3.324,-1.1146 -6.7962,-2.471 z m 46.3489,1.9272 c 0.1719,-0.1148 1.5035,-4.0411 1.8876,-5.5659 0.4123,-1.6367 0.6768,-4.0126 0.8126,-7.2984 0.073,-1.7742 0.1357,-23.667 0.1388,-48.6509 0.01,-50.4465 -0.086,-46.0832 0.9809,-46.5289 0.8208,-0.343 1.3605,-0.077 2.3844,1.1764 1.2509,1.5309 3.6287,3.7417 5.6578,5.2606 0.9677,0.7244 3.8379,2.7021 6.3782,4.3948 2.5403,1.6928 5.1796,3.4786 5.8651,3.9686 7.5502,5.3973 11.8224,10.7693 13.4032,16.8533 0.5282,2.0328 0.7245,3.6163 0.736,5.9374 0,1.1488 0.05,2.0891 0.098,2.0894 0.1502,0 1.4055,-2.6498 1.8741,-3.958 0.2455,-0.6855 0.6759,-2.0461 0.9563,-3.0236 1.8567,-6.4707 1.025,-13.562 -2.4055,-20.5101 -1.2481,-2.5278 -2.3654,-4.0292 -4.6474,-6.2445 -1.6292,-1.5817 -3.0096,-2.6658 -9.1544,-7.1899 -5.3499,-3.9388 -7.3397,-6.0528 -11.3691,-12.0787 -3.8085,-5.6955 -6.227,-10.4325 -9.4537,-18.517 -0.892,-2.2349 -1.8462,-4.4924 -2.1202,-5.0166 -1.3238,-2.5317 -2.7102,-3.5705 -5.2073,-3.9018 l -0.7158,-0.095 0,55.3851 c 0,50.1335 -0.022,55.4314 -0.2313,55.8725 -0.1378,0.2905 -0.4426,0.5876 -0.7542,0.7355 -0.6979,0.3312 -1.4752,0.1097 -1.9919,-0.5677 -0.2043,-0.2679 -0.8802,-1.0429 -1.502,-1.7221 -6.1411,-6.708 -14.2052,-10.9204 -23.5997,-12.3274 -1.9776,-0.2962 -8.1953,-0.2617 -10.3004,0.057 -9.9836,1.5121 -18.8314,6.4367 -25.0957,13.968 -2.5167,3.0258 -5.2141,7.5771 -6.5515,11.0543 l -0.4168,1.0836 0.5078,0.4324 c 8.2202,6.9988 53.3834,23.1362 69.7891,24.9364 0.962,0.1056 3.8851,0.099 4.0469,-0.01 z m -53.8447,-41.3019 c -0.6085,-0.2633 -0.9352,-0.7601 -0.9352,-1.4224 0,-0.8734 0.5272,-1.3387 2.7795,-2.4528 3.4646,-1.714 7.4106,-2.8319 11.7365,-3.3251 2.7263,-0.3109 7.937,-0.2355 9.8241,0.1421 2.2149,0.4434 3.1693,0.7824 3.5819,1.2727 0.5315,0.6316 0.5157,1.4386 -0.04,2.0608 -0.5225,0.5848 -0.9254,0.5976 -2.8086,0.09 -2.5831,-0.6973 -6.0559,-0.8691 -9.718,-0.4804 -4.6376,0.492 -8.0241,1.4498 -11.6896,3.3061 -2.0271,1.0265 -2.1472,1.0622 -2.7304,0.8099 z"
           style="opacity:0.88500001;fill:#006e98;fill-opacity:1;stroke:none;stroke-width:0;stroke-miterlimit:4;stroke-dasharray:none;stroke-opacity:1;filter:url(#filter12546-2)" />
      </g>
      <g
         id="g5841"
         transform="matrix(0.42003555,0,0,0.42003555,-2681.4766,-1981.6359)">
        <g
           style="opacity:0.96000001;fill:#ffffff;fill-opacity:1"
           transform="matrix(3.1068494,-0.48898361,0,3.1068494,2753.9567,-5127.1713)"
           id="g5843">
          <text
             xml:space="preserve"
             style="font-style:normal;font-variant:normal;font-weight:400;font-size:52.15811157px;line-height:176.99999809%;font-family:Calibri;text-align:start;letter-spacing:0px;word-spacing:0px;text-anchor:start;fill:#ffffff;fill-opacity:1;stroke:none"
             x="-1815.1954"
             y="-1.15142"
             id="text5845"
             sodipodi:linespacing="177%"><tspan
               sodipodi:role="line"
               x="-1815.1954"
               y="-1.15142"
               id="tspan5847"
               style="font-style:normal;font-variant:normal;font-weight:300;font-stretch:normal;line-height:176.99999809%;font-family:Montserrat;-inkscape-font-specification:'Montserrat Light';letter-spacing:4.57999897px;fill:#ffffff;fill-opacity:1">SPACE</tspan></text>
          <text
             id="text5849"
             y="-75.687782"
             x="-1804.4963"
             style="font-style:normal;font-variant:normal;font-weight:400;font-size:63.53969574px;font-family:Calibri;text-align:start;letter-spacing:0px;word-spacing:0px;text-anchor:start;fill:#ffffff;fill-opacity:1;stroke:none"
             xml:space="preserve"><tspan
               id="tspan5851"
               y="-75.687782"
               x="-1804.4963"
               sodipodi:role="line"><tspan
                 id="tspan5853"
                 style="font-style:normal;font-variant:normal;font-weight:400;font-family:Calibri;fill:#ffffff;fill-opacity:1"
                 dy="0"
                 dx="0"><tspan
                   id="tspan5855"
                   style="font-style:normal;font-variant:normal;font-weight:normal;font-stretch:normal;font-family:Pacifico;-inkscape-font-specification:Pacifico;fill:#ffffff;fill-opacity:1">groovy</tspan><tspan
                   id="tspan5857"
                   style="font-style:normal;font-variant:normal;font-weight:normal;font-stretch:normal;font-family:Righteous;-inkscape-font-specification:Righteous;fill:#ffffff;fill-opacity:1" /></tspan></tspan></text>
        </g>
        <g
           transform="matrix(1.9176558,0,0,1.9176558,-290.20007,-6865.1509)"
           id="g5859">
          <path
             inkscape:connector-curvature="0"
             style="opacity:0.96000001;fill:none;fill-opacity:1;fill-rule:evenodd;stroke:#ffffff;stroke-width:3.2402575;stroke-linecap:round;stroke-linejoin:round;stroke-miterlimit:4;stroke-dasharray:none;stroke-dashoffset:14.22999954;stroke-opacity:1"
             d="m -1513.3289,1309.9532 a 79.13504,18.671189 19.081827 0 0 -16.5087,5.4452 79.13504,18.671189 19.081827 0 0 68.6829,43.5155 79.13504,18.671189 19.081827 0 0 80.89,8.2254 79.13504,18.671189 19.081827 0 0 -32.2995,-28.2936 l -0.05,2.8565 c -0.349,6.2515 -0.9085,7.5726 -3.0109,13.6503 -8.2548,4.3396 -79.9769,-21.2942 -79.127,-27.3732 1.9348,-5.5927 4.9505,-10.5333 8.7258,-14.6712 a 79.13504,18.671189 19.081827 0 0 -27.3024,-3.3549 z"
             id="path5861" />
          <path
             style="opacity:0.96000001;fill:none;fill-rule:evenodd;stroke:#ffffff;stroke-width:3.2402575;stroke-linecap:round;stroke-linejoin:miter;stroke-miterlimit:4;stroke-dasharray:none;stroke-opacity:1"
             d="m -1408.5492,1365.035 c 5.6943,0.9064 18.9183,2.7785 20.2865,-0.3413 1.5137,-3.4522 -24.2797,-18.3706 -24.5637,-17.8864"
             id="path5863"
             inkscape:connector-curvature="0"
             sodipodi:nodetypes="csc" />
          <path
             sodipodi:nodetypes="csc"
             inkscape:connector-curvature="0"
             id="path5865"
             d="m -1503.929,1332.5586 c 0,0 13.978,7.1626 21.1515,10.3486 8.2737,3.6743 25.2123,10.0957 25.2123,10.0957"
             style="opacity:0.96000001;fill:none;fill-rule:evenodd;stroke:#ffffff;stroke-width:3.2402575;stroke-linecap:round;stroke-linejoin:miter;stroke-miterlimit:4;stroke-dasharray:none;stroke-opacity:1" />
          <path
             sodipodi:nodetypes="cc"
             inkscape:connector-curvature="0"
             id="path5867"
             d="m -1432.7286,1367.34 c 0,0 -3.5594,4.4532 -11.5409,6.5705"
             style="opacity:0.96000001;fill:none;fill-rule:evenodd;stroke:#ffffff;stroke-width:3.2402575;stroke-linecap:round;stroke-linejoin:miter;stroke-miterlimit:4;stroke-dasharray:none;stroke-opacity:1" />
          <path
             style="opacity:0.96000001;fill:none;fill-rule:evenodd;stroke:#ffffff;stroke-width:3.2402575;stroke-linecap:round;stroke-linejoin:miter;stroke-miterlimit:4;stroke-dasharray:none;stroke-opacity:1"
             d="m -1454.9684,1375.2996 c -0.2139,0.1039 -6.9964,0.7028 -12.8329,-2.2985"
             id="path5869"
             inkscape:connector-curvature="0"
             sodipodi:nodetypes="cc" />
          <path
             sodipodi:nodetypes="csc"
             inkscape:connector-curvature="0"
             id="path5871"
             d="m -1512.8888,1326.4555 c -4.4504,-2.7548 -9.1202,-6.1784 -8.4623,-7.9883 1.3333,-3.6682 26.1952,-0.08 30.2149,0.3928"
             style="opacity:0.96000001;fill:none;fill-rule:evenodd;stroke:#ffffff;stroke-width:3.2402575;stroke-linecap:round;stroke-linejoin:miter;stroke-miterlimit:4;stroke-dasharray:none;stroke-opacity:1" />
          <path
             style="opacity:0.96000001;fill:none;fill-opacity:1;fill-rule:evenodd;stroke:#ffffff;stroke-width:3.2402575;stroke-linecap:round;stroke-linejoin:round;stroke-miterlimit:4;stroke-dasharray:none;stroke-opacity:1"
             d="m -1422.694,1200.142 0,114.7222 c -4.7224,-5.8698 -11.0627,-10.529 -18.6695,-13.1604 -21.8504,-7.5586 -45.8296,4.4261 -53.3883,26.2764 -0.8499,6.0789 70.872,31.7109 79.1268,27.3715 2.1024,-6.0778 2.6609,-7.3982 3.0099,-13.6497 l 0.085,-4.7256 0,-91.9518 c 9.662,13.4676 39.523,17.6679 31.7981,45.949 0,0 4.2105,-5.1398 5.5502,-8.3253 1.6904,-4.0194 3.0199,-8.5654 2.9175,-13.0844 -0.1215,-5.3716 -1.7735,-10.7865 -4.1642,-15.2932 -4.7804,-9.0115 -16.1045,-12.6813 -22.0711,-20.5617 -17.5292,-23.4481 -11.0176,-33.7547 -24.1944,-33.567 z"
             id="path5873"
             inkscape:connector-curvature="0"
             sodipodi:nodetypes="ccsccccccscsccc" />
          <path
             style="opacity:0.96000001;fill:none;fill-rule:evenodd;stroke:#ffffff;stroke-width:3.2402575;stroke-linecap:round;stroke-linejoin:miter;stroke-miterlimit:4;stroke-dasharray:none;stroke-opacity:1"
             d="m -1471.512,1310.3518 c 0,0 4.7145,-3.1709 12.4851,-4.1968 8.9751,-1.1849 13.3588,0.7705 13.3588,0.7705"
             id="path5875"
             inkscape:connector-curvature="0"
             sodipodi:nodetypes="csc" />
          <path
             style="opacity:0.96000001;fill:none;fill-opacity:1;fill-rule:evenodd;stroke:#ffffff;stroke-width:3.2402575;stroke-linecap:round;stroke-linejoin:round;stroke-miterlimit:4;stroke-dasharray:none;stroke-dashoffset:14.22999954;stroke-opacity:1"
             d="m -1496.7775,1344.0845 c 1.1242,16.7669 12.1655,31.2367 28.0407,36.7479 15.9057,5.5016 33.5597,0.9433 44.8135,-11.5712 -11.6428,-2.3753 -24.4602,-5.9377 -37.2314,-10.3473 -12.7418,-4.4105 -25.0038,-9.5151 -35.6228,-14.8294 z"
             id="path5877"
             inkscape:connector-curvature="0"
             sodipodi:nodetypes="ccccc" />
        </g>
      </g>
    </g>
  </g>
</svg>
